<?xml version="1.0" encoding="us-ascii" standalone="no"?><svg xmlns="http://www.w3.org/2000/svg" xmlns:xlink="http://www.w3.org/1999/xlink" contentStyleType="text/css" height="1122px" preserveAspectRatio="none" style="width:1312px;height:1122px;background:#FFFFFF;" version="1.1" viewBox="0 0 1312 1122" width="1312px" zoomAndPan="magnify"><defs/><g><rect fill="#FFFFFF" height="929.6797" style="stroke:#181818;stroke-width:1.0;" width="10" x="34" y="92.6094"/><rect fill="#FFFFFF" height="317.5156" style="stroke:#181818;stroke-width:1.0;" width="10" x="309" y="159.3125"/><rect fill="#FFFFFF" height="256.8125" style="stroke:#181818;stroke-width:1.0;" width="10" x="482" y="189.6641"/><rect fill="#FFFFFF" height="91.0547" style="stroke:#181818;stroke-width:1.0;" width="10" x="702" y="220.0156"/><rect fill="#FFFFFF" height="91.0547" style="stroke:#181818;stroke-width:1.0;" width="10" x="702" y="551.5313"/><rect fill="#FFFFFF" height="151.7578" style="stroke:#181818;stroke-width:1.0;" width="10" x="843.5" y="742.6406"/><rect fill="#FFFFFF" height="30.3516" style="stroke:#181818;stroke-width:1.0;" width="10" x="951.5" y="250.3672"/><rect fill="#FFFFFF" height="30.3516" style="stroke:#181818;stroke-width:1.0;" width="10" x="951.5" y="581.8828"/><rect fill="#FFFFFF" height="30.3516" style="stroke:#181818;stroke-width:1.0;" width="10" x="1022.5" y="385.7734"/><rect fill="#FFFFFF" height="30.3516" style="stroke:#181818;stroke-width:1.0;" width="10" x="1086" y="772.9922"/><rect fill="#FFFFFF" height="30.3516" style="stroke:#181818;stroke-width:1.0;" width="10" x="1172" y="833.6953"/><rect fill="none" height="246.6484" style="stroke:#000000;stroke-width:1.5;" width="985" x="250" y="701.9375"/><line style="stroke:#181818;stroke-width:0.5;stroke-dasharray:5.0,5.0;" x1="39" x2="39" y1="82.6094" y2="1040.2891"/><line style="stroke:#181818;stroke-width:0.5;stroke-dasharray:5.0,5.0;" x1="314" x2="314" y1="82.6094" y2="1040.2891"/><line style="stroke:#181818;stroke-width:0.5;stroke-dasharray:5.0,5.0;" x1="487" x2="487" y1="82.6094" y2="1040.2891"/><line style="stroke:#181818;stroke-width:0.5;stroke-dasharray:5.0,5.0;" x1="707" x2="707" y1="82.6094" y2="1040.2891"/><line style="stroke:#181818;stroke-width:0.5;stroke-dasharray:5.0,5.0;" x1="848" x2="848" y1="82.6094" y2="1040.2891"/><line style="stroke:#181818;stroke-width:0.5;stroke-dasharray:5.0,5.0;" x1="956" x2="956" y1="82.6094" y2="1040.2891"/><line style="stroke:#181818;stroke-width:0.5;stroke-dasharray:5.0,5.0;" x1="1027" x2="1027" y1="82.6094" y2="1040.2891"/><line style="stroke:#181818;stroke-width:0.5;stroke-dasharray:5.0,5.0;" x1="1091" x2="1091" y1="82.6094" y2="1040.2891"/><line style="stroke:#181818;stroke-width:0.5;stroke-dasharray:5.0,5.0;" x1="1177" x2="1177" y1="82.6094" y2="1040.2891"/><line style="stroke:#181818;stroke-width:0.5;stroke-dasharray:5.0,5.0;" x1="1267" x2="1267" y1="82.6094" y2="1040.2891"/><text fill="#000000" font-family="sans-serif" font-size="14" lengthAdjust="spacing" textLength="62" x="5" y="79.5332">Vendedor</text><ellipse cx="39" cy="13.5" fill="#E2E2F0" rx="8" ry="8" style="stroke:#181818;stroke-width:0.5;"/><path d="M39,21.5 L39,48.5 M26,29.5 L52,29.5 M39,48.5 L26,63.5 M39,48.5 L52,63.5 " fill="none" style="stroke:#181818;stroke-width:0.5;"/><text fill="#000000" font-family="sans-serif" font-size="14" lengthAdjust="spacing" textLength="62" x="5" y="1053.8223">Vendedor</text><ellipse cx="39" cy="1065.3984" fill="#E2E2F0" rx="8" ry="8" style="stroke:#181818;stroke-width:0.5;"/><path d="M39,1073.3984 L39,1100.3984 M26,1081.3984 L52,1081.3984 M39,1100.3984 L26,1115.3984 M39,1100.3984 L52,1115.3984 " fill="none" style="stroke:#181818;stroke-width:0.5;"/><rect fill="#E2E2F0" height="31.6094" rx="2.5" ry="2.5" style="stroke:#181818;stroke-width:0.5;" width="108" x="260" y="50"/><text fill="#000000" font-family="sans-serif" font-size="14" lengthAdjust="spacing" textLength="94" x="267" y="71.5332">InterfazUsuario</text><rect fill="#E2E2F0" height="31.6094" rx="2.5" ry="2.5" style="stroke:#181818;stroke-width:0.5;" width="108" x="260" y="1039.2891"/><text fill="#000000" font-family="sans-serif" font-size="14" lengthAdjust="spacing" textLength="94" x="267" y="1060.8223">InterfazUsuario</text><rect fill="#E2E2F0" height="31.6094" rx="2.5" ry="2.5" style="stroke:#181818;stroke-width:0.5;" width="120" x="427" y="50"/><text fill="#000000" font-family="sans-serif" font-size="14" lengthAdjust="spacing" textLength="106" x="434" y="71.5332">VentasController</text><rect fill="#E2E2F0" height="31.6094" rx="2.5" ry="2.5" style="stroke:#181818;stroke-width:0.5;" width="120" x="427" y="1039.2891"/><text fill="#000000" font-family="sans-serif" font-size="14" lengthAdjust="spacing" textLength="106" x="434" y="1060.8223">VentasController</text><rect fill="#E2E2F0" height="31.6094" rx="2.5" ry="2.5" style="stroke:#181818;stroke-width:0.5;" width="138" x="638" y="50"/><text fill="#000000" font-family="sans-serif" font-size="14" lengthAdjust="spacing" textLength="124" x="645" y="71.5332">InventarioController</text><rect fill="#E2E2F0" height="31.6094" rx="2.5" ry="2.5" style="stroke:#181818;stroke-width:0.5;" width="138" x="638" y="1039.2891"/><text fill="#000000" font-family="sans-serif" font-size="14" lengthAdjust="spacing" textLength="124" x="645" y="1060.8223">InventarioController</text><rect fill="#E2E2F0" height="31.6094" rx="2.5" ry="2.5" style="stroke:#181818;stroke-width:0.5;" width="125" x="786" y="50"/><text fill="#000000" font-family="sans-serif" font-size="14" lengthAdjust="spacing" textLength="111" x="793" y="71.5332">DeudasController</text><rect fill="#E2E2F0" height="31.6094" rx="2.5" ry="2.5" style="stroke:#181818;stroke-width:0.5;" width="125" x="786" y="1039.2891"/><text fill="#000000" font-family="sans-serif" font-size="14" lengthAdjust="spacing" textLength="111" x="793" y="1060.8223">DeudasController</text><rect fill="#E2E2F0" height="31.6094" rx="2.5" ry="2.5" style="stroke:#181818;stroke-width:0.5;" width="71" x="921" y="50"/><text fill="#000000" font-family="sans-serif" font-size="14" lengthAdjust="spacing" textLength="57" x="928" y="71.5332">Producto</text><rect fill="#E2E2F0" height="31.6094" rx="2.5" ry="2.5" style="stroke:#181818;stroke-width:0.5;" width="71" x="921" y="1039.2891"/><text fill="#000000" font-family="sans-serif" font-size="14" lengthAdjust="spacing" textLength="57" x="928" y="1060.8223">Producto</text><rect fill="#E2E2F0" height="31.6094" rx="2.5" ry="2.5" style="stroke:#181818;stroke-width:0.5;" width="51" x="1002" y="50"/><text fill="#000000" font-family="sans-serif" font-size="14" lengthAdjust="spacing" textLength="37" x="1009" y="71.5332">Venta</text><rect fill="#E2E2F0" height="31.6094" rx="2.5" ry="2.5" style="stroke:#181818;stroke-width:0.5;" width="51" x="1002" y="1039.2891"/><text fill="#000000" font-family="sans-serif" font-size="14" lengthAdjust="spacing" textLength="37" x="1009" y="1060.8223">Venta</text><rect fill="#E2E2F0" height="31.6094" rx="2.5" ry="2.5" style="stroke:#181818;stroke-width:0.5;" width="56" x="1063" y="50"/><text fill="#000000" font-family="sans-serif" font-size="14" lengthAdjust="spacing" textLength="42" x="1070" y="71.5332">Deuda</text><rect fill="#E2E2F0" height="31.6094" rx="2.5" ry="2.5" style="stroke:#181818;stroke-width:0.5;" width="56" x="1063" y="1039.2891"/><text fill="#000000" font-family="sans-serif" font-size="14" lengthAdjust="spacing" textLength="42" x="1070" y="1060.8223">Deuda</text><rect fill="#E2E2F0" height="31.6094" rx="2.5" ry="2.5" style="stroke:#181818;stroke-width:0.5;" width="96" x="1129" y="50"/><text fill="#000000" font-family="sans-serif" font-size="14" lengthAdjust="spacing" textLength="82" x="1136" y="71.5332">Recordatorio</text><rect fill="#E2E2F0" height="31.6094" rx="2.5" ry="2.5" style="stroke:#181818;stroke-width:0.5;" width="96" x="1129" y="1039.2891"/><text fill="#000000" font-family="sans-serif" font-size="14" lengthAdjust="spacing" textLength="82" x="1136" y="1060.8223">Recordatorio</text><rect fill="#E2E2F0" height="31.6094" rx="2.5" ry="2.5" style="stroke:#181818;stroke-width:0.5;" width="65" x="1235" y="50"/><text fill="#000000" font-family="sans-serif" font-size="14" lengthAdjust="spacing" textLength="51" x="1242" y="71.5332">Reporte</text><rect fill="#E2E2F0" height="31.6094" rx="2.5" ry="2.5" style="stroke:#181818;stroke-width:0.5;" width="65" x="1235" y="1039.2891"/><text fill="#000000" font-family="sans-serif" font-size="14" lengthAdjust="spacing" textLength="51" x="1242" y="1060.8223">Reporte</text><rect fill="#FFFFFF" height="929.6797" style="stroke:#181818;stroke-width:1.0;" width="10" x="34" y="92.6094"/><rect fill="#FFFFFF" height="317.5156" style="stroke:#181818;stroke-width:1.0;" width="10" x="309" y="159.3125"/><rect fill="#FFFFFF" height="256.8125" style="stroke:#181818;stroke-width:1.0;" width="10" x="482" y="189.6641"/><rect fill="#FFFFFF" height="91.0547" style="stroke:#181818;stroke-width:1.0;" width="10" x="702" y="220.0156"/><rect fill="#FFFFFF" height="91.0547" style="stroke:#181818;stroke-width:1.0;" width="10" x="702" y="551.5313"/><rect fill="#FFFFFF" height="151.7578" style="stroke:#181818;stroke-width:1.0;" width="10" x="843.5" y="742.6406"/><rect fill="#FFFFFF" height="30.3516" style="stroke:#181818;stroke-width:1.0;" width="10" x="951.5" y="250.3672"/><rect fill="#FFFFFF" height="30.3516" style="stroke:#181818;stroke-width:1.0;" width="10" x="951.5" y="581.8828"/><rect fill="#FFFFFF" height="30.3516" style="stroke:#181818;stroke-width:1.0;" width="10" x="1022.5" y="385.7734"/><rect fill="#FFFFFF" height="30.3516" style="stroke:#181818;stroke-width:1.0;" width="10" x="1086" y="772.9922"/><rect fill="#FFFFFF" height="30.3516" style="stroke:#181818;stroke-width:1.0;" width="10" x="1172" y="833.6953"/><rect fill="#EEEEEE" height="3" style="stroke:#EEEEEE;stroke-width:1.0;" width="1305" x="0" y="113.7852"/><line style="stroke:#000000;stroke-width:1.0;" x1="0" x2="1305" y1="113.7852" y2="113.7852"/><line style="stroke:#000000;stroke-width:1.0;" x1="0" x2="1305" y1="116.7852" y2="116.7852"/><rect fill="#EEEEEE" height="24.3516" style="stroke:#000000;stroke-width:2.0;" width="130" x="587.5" y="102.6094"/><text fill="#000000" font-family="sans-serif" font-size="13" font-weight="bold" lengthAdjust="spacing" textLength="112" x="593.5" y="120.1045">Inicio de la Venta</text><polygon fill="#181818" points="297,155.3125,307,159.3125,297,163.3125,301,159.3125" style="stroke:#181818;stroke-width:1.0;"/><line style="stroke:#181818;stroke-width:1.0;" x1="44" x2="303" y1="159.3125" y2="159.3125"/><text fill="#000000" font-family="sans-serif" font-size="13" lengthAdjust="spacing" textLength="233" x="51" y="154.4561">Ingresar productos y detalles de la venta</text><polygon fill="#181818" points="470,185.6641,480,189.6641,470,193.6641,474,189.6641" style="stroke:#181818;stroke-width:1.0;"/><line style="stroke:#181818;stroke-width:1.0;" x1="319" x2="476" y1="189.6641" y2="189.6641"/><text fill="#000000" font-family="sans-serif" font-size="13" lengthAdjust="spacing" textLength="86" x="326" y="184.8076">Procesar venta</text><polygon fill="#181818" points="690,216.0156,700,220.0156,690,224.0156,694,220.0156" style="stroke:#181818;stroke-width:1.0;"/><line style="stroke:#181818;stroke-width:1.0;" x1="492" x2="696" y1="220.0156" y2="220.0156"/><text fill="#000000" font-family="sans-serif" font-size="13" lengthAdjust="spacing" textLength="191" x="499" y="215.1592">Consultar disponibilidad de stock</text><polygon fill="#181818" points="939.5,246.3672,949.5,250.3672,939.5,254.3672,943.5,250.3672" style="stroke:#181818;stroke-width:1.0;"/><line style="stroke:#181818;stroke-width:1.0;" x1="712" x2="945.5" y1="250.3672" y2="250.3672"/><text fill="#000000" font-family="sans-serif" font-size="13" lengthAdjust="spacing" textLength="158" x="719" y="245.5107">Verificar stock del producto</text><polygon fill="#181818" points="723,276.7188,713,280.7188,723,284.7188,719,280.7188" style="stroke:#181818;stroke-width:1.0;"/><line style="stroke:#181818;stroke-width:1.0;stroke-dasharray:2.0,2.0;" x1="717" x2="955.5" y1="280.7188" y2="280.7188"/><text fill="#000000" font-family="sans-serif" font-size="13" lengthAdjust="spacing" textLength="93" x="729" y="275.8623">Stock suficiente</text><polygon fill="#181818" points="503,307.0703,493,311.0703,503,315.0703,499,311.0703" style="stroke:#181818;stroke-width:1.0;"/><line style="stroke:#181818;stroke-width:1.0;stroke-dasharray:2.0,2.0;" x1="497" x2="706" y1="311.0703" y2="311.0703"/><text fill="#000000" font-family="sans-serif" font-size="13" lengthAdjust="spacing" textLength="129" x="509" y="306.2139">Confirmaci&#243;n de stock</text><rect fill="#EEEEEE" height="3" style="stroke:#EEEEEE;stroke-width:1.0;" width="1305" x="0" y="340.2461"/><line style="stroke:#000000;stroke-width:1.0;" x1="0" x2="1305" y1="340.2461" y2="340.2461"/><line style="stroke:#000000;stroke-width:1.0;" x1="0" x2="1305" y1="343.2461" y2="343.2461"/><rect fill="#EEEEEE" height="24.3516" style="stroke:#000000;stroke-width:2.0;" width="131" x="587" y="329.0703"/><text fill="#000000" font-family="sans-serif" font-size="13" font-weight="bold" lengthAdjust="spacing" textLength="113" x="593" y="346.5654">Registro de Venta</text><polygon fill="#181818" points="1010.5,381.7734,1020.5,385.7734,1010.5,389.7734,1014.5,385.7734" style="stroke:#181818;stroke-width:1.0;"/><line style="stroke:#181818;stroke-width:1.0;" x1="492" x2="1016.5" y1="385.7734" y2="385.7734"/><text fill="#000000" font-family="sans-serif" font-size="13" lengthAdjust="spacing" textLength="130" x="499" y="380.917">Crear registro de venta</text><polygon fill="#181818" points="503,412.125,493,416.125,503,420.125,499,416.125" style="stroke:#181818;stroke-width:1.0;"/><line style="stroke:#181818;stroke-width:1.0;stroke-dasharray:2.0,2.0;" x1="497" x2="1026.5" y1="416.125" y2="416.125"/><text fill="#000000" font-family="sans-serif" font-size="13" lengthAdjust="spacing" textLength="188" x="509" y="411.2686">Confirmaci&#243;n de venta registrada</text><polygon fill="#181818" points="330,442.4766,320,446.4766,330,450.4766,326,446.4766" style="stroke:#181818;stroke-width:1.0;"/><line style="stroke:#181818;stroke-width:1.0;" x1="324" x2="486" y1="446.4766" y2="446.4766"/><text fill="#000000" font-family="sans-serif" font-size="13" lengthAdjust="spacing" textLength="139" x="336" y="441.6201">Mostrar total de la venta</text><polygon fill="#181818" points="55,472.8281,45,476.8281,55,480.8281,51,476.8281" style="stroke:#181818;stroke-width:1.0;"/><line style="stroke:#181818;stroke-width:1.0;" x1="49" x2="313" y1="476.8281" y2="476.8281"/><text fill="#000000" font-family="sans-serif" font-size="13" lengthAdjust="spacing" textLength="183" x="61" y="471.9717">Confirmaci&#243;n de venta realizada</text><rect fill="#EEEEEE" height="3" style="stroke:#EEEEEE;stroke-width:1.0;" width="1305" x="0" y="506.0039"/><line style="stroke:#000000;stroke-width:1.0;" x1="0" x2="1305" y1="506.0039" y2="506.0039"/><line style="stroke:#000000;stroke-width:1.0;" x1="0" x2="1305" y1="509.0039" y2="509.0039"/><rect fill="#EEEEEE" height="24.3516" style="stroke:#000000;stroke-width:2.0;" width="192" x="556.5" y="494.8281"/><text fill="#000000" font-family="sans-serif" font-size="13" font-weight="bold" lengthAdjust="spacing" textLength="174" x="562.5" y="512.3232">Actualizaci&#243;n de Inventario</text><polygon fill="#181818" points="690,547.5313,700,551.5313,690,555.5313,694,551.5313" style="stroke:#181818;stroke-width:1.0;"/><line style="stroke:#181818;stroke-width:1.0;" x1="487" x2="696" y1="551.5313" y2="551.5313"/><text fill="#000000" font-family="sans-serif" font-size="13" lengthAdjust="spacing" textLength="116" x="494" y="546.6748">Actualizar inventario</text><polygon fill="#181818" points="939.5,577.8828,949.5,581.8828,939.5,585.8828,943.5,581.8828" style="stroke:#181818;stroke-width:1.0;"/><line style="stroke:#181818;stroke-width:1.0;" x1="712" x2="945.5" y1="581.8828" y2="581.8828"/><text fill="#000000" font-family="sans-serif" font-size="13" lengthAdjust="spacing" textLength="213" x="719" y="577.0264">Reducir stock de productos vendidos</text><polygon fill="#181818" points="723,608.2344,713,612.2344,723,616.2344,719,612.2344" style="stroke:#181818;stroke-width:1.0;"/><line style="stroke:#181818;stroke-width:1.0;stroke-dasharray:2.0,2.0;" x1="717" x2="955.5" y1="612.2344" y2="612.2344"/><text fill="#000000" font-family="sans-serif" font-size="13" lengthAdjust="spacing" textLength="173" x="729" y="607.3779">Confirmaci&#243;n de actualizaci&#243;n</text><polygon fill="#181818" points="498,638.5859,488,642.5859,498,646.5859,494,642.5859" style="stroke:#181818;stroke-width:1.0;"/><line style="stroke:#181818;stroke-width:1.0;stroke-dasharray:2.0,2.0;" x1="492" x2="706" y1="642.5859" y2="642.5859"/><text fill="#000000" font-family="sans-serif" font-size="13" lengthAdjust="spacing" textLength="124" x="504" y="637.7295">Inventario actualizado</text><rect fill="#EEEEEE" height="3" style="stroke:#EEEEEE;stroke-width:1.0;" width="1305" x="0" y="671.7617"/><line style="stroke:#000000;stroke-width:1.0;" x1="0" x2="1305" y1="671.7617" y2="671.7617"/><line style="stroke:#000000;stroke-width:1.0;" x1="0" x2="1305" y1="674.7617" y2="674.7617"/><rect fill="#EEEEEE" height="24.3516" style="stroke:#000000;stroke-width:2.0;" width="137" x="584" y="660.5859"/><text fill="#000000" font-family="sans-serif" font-size="13" font-weight="bold" lengthAdjust="spacing" textLength="119" x="590" y="678.0811">Gesti&#243;n de Deudas</text><path d="M250,701.9375 L311,701.9375 L311,710.2891 L301,720.2891 L250,720.2891 L250,701.9375 " fill="#EEEEEE" style="stroke:#000000;stroke-width:1.5;"/><rect fill="none" height="246.6484" style="stroke:#000000;stroke-width:1.5;" width="985" x="250" y="701.9375"/><text fill="#000000" font-family="sans-serif" font-size="13" font-weight="bold" lengthAdjust="spacing" textLength="16" x="265" y="716.4326">alt</text><text fill="#000000" font-family="sans-serif" font-size="11" font-weight="bold" lengthAdjust="spacing" textLength="91" x="326" y="715.3564">[Venta a cr&#233;dito]</text><polygon fill="#181818" points="831.5,738.6406,841.5,742.6406,831.5,746.6406,835.5,742.6406" style="stroke:#181818;stroke-width:1.0;"/><line style="stroke:#181818;stroke-width:1.0;" x1="487" x2="837.5" y1="742.6406" y2="742.6406"/><text fill="#000000" font-family="sans-serif" font-size="13" lengthAdjust="spacing" textLength="154" x="494" y="737.7842">Registrar deuda del cliente</text><polygon fill="#181818" points="1074,768.9922,1084,772.9922,1074,776.9922,1078,772.9922" style="stroke:#181818;stroke-width:1.0;"/><line style="stroke:#181818;stroke-width:1.0;" x1="853.5" x2="1080" y1="772.9922" y2="772.9922"/><text fill="#000000" font-family="sans-serif" font-size="13" lengthAdjust="spacing" textLength="135" x="860.5" y="768.1357">Crear registro de deuda</text><polygon fill="#181818" points="864.5,799.3438,854.5,803.3438,864.5,807.3438,860.5,803.3438" style="stroke:#181818;stroke-width:1.0;"/><line style="stroke:#181818;stroke-width:1.0;stroke-dasharray:2.0,2.0;" x1="858.5" x2="1090" y1="803.3438" y2="803.3438"/><text fill="#000000" font-family="sans-serif" font-size="13" lengthAdjust="spacing" textLength="193" x="870.5" y="798.4873">Confirmaci&#243;n de deuda registrada</text><polygon fill="#181818" points="1160,829.6953,1170,833.6953,1160,837.6953,1164,833.6953" style="stroke:#181818;stroke-width:1.0;"/><line style="stroke:#181818;stroke-width:1.0;" x1="853.5" x2="1166" y1="833.6953" y2="833.6953"/><text fill="#000000" font-family="sans-serif" font-size="13" lengthAdjust="spacing" textLength="201" x="860.5" y="828.8389">Crear recordatorio para el vendedor</text><polygon fill="#181818" points="864.5,860.0469,854.5,864.0469,864.5,868.0469,860.5,864.0469" style="stroke:#181818;stroke-width:1.0;"/><line style="stroke:#181818;stroke-width:1.0;stroke-dasharray:2.0,2.0;" x1="858.5" x2="1176" y1="864.0469" y2="864.0469"/><text fill="#000000" font-family="sans-serif" font-size="13" lengthAdjust="spacing" textLength="116" x="870.5" y="859.1904">Recordatorio creado</text><polygon fill="#181818" points="498,890.3984,488,894.3984,498,898.3984,494,894.3984" style="stroke:#181818;stroke-width:1.0;"/><line style="stroke:#181818;stroke-width:1.0;stroke-dasharray:2.0,2.0;" x1="492" x2="847.5" y1="894.3984" y2="894.3984"/><text fill="#000000" font-family="sans-serif" font-size="13" lengthAdjust="spacing" textLength="104" x="504" y="889.542">Deuda gestionada</text><line style="stroke:#000000;stroke-width:1.0;stroke-dasharray:2.0,2.0;" x1="250" x2="1235" y1="903.3984" y2="903.3984"/><text fill="#000000" font-family="sans-serif" font-size="11" font-weight="bold" lengthAdjust="spacing" textLength="99" x="255" y="914.8174">[Venta al contado]</text><polygon fill="#181818" points="325,936.5859,315,940.5859,325,944.5859,321,940.5859" style="stroke:#181818;stroke-width:1.0;"/><line style="stroke:#181818;stroke-width:1.0;" x1="319" x2="486" y1="940.5859" y2="940.5859"/><text fill="#000000" font-family="sans-serif" font-size="13" lengthAdjust="spacing" textLength="144" x="331" y="935.7295">Confirmar pago completo</text><rect fill="#EEEEEE" height="3" style="stroke:#EEEEEE;stroke-width:1.0;" width="1305" x="0" y="976.7617"/><line style="stroke:#000000;stroke-width:1.0;" x1="0" x2="1305" y1="976.7617" y2="976.7617"/><line style="stroke:#000000;stroke-width:1.0;" x1="0" x2="1305" y1="979.7617" y2="979.7617"/><rect fill="#EEEEEE" height="24.3516" style="stroke:#000000;stroke-width:2.0;" width="96" x="604.5" y="965.5859"/><text fill="#000000" font-family="sans-serif" font-size="13" font-weight="bold" lengthAdjust="spacing" textLength="78" x="610.5" y="983.0811">Finalizaci&#243;n</text><polygon fill="#181818" points="50,1018.2891,40,1022.2891,50,1026.2891,46,1022.2891" style="stroke:#181818;stroke-width:1.0;"/><line style="stroke:#181818;stroke-width:1.0;stroke-dasharray:2.0,2.0;" x1="44" x2="313" y1="1022.2891" y2="1022.2891"/><text fill="#000000" font-family="sans-serif" font-size="13" lengthAdjust="spacing" textLength="246" x="56" y="1017.4326">Confirmar finalizaci&#243;n del proceso de venta</text><!--SRC=[bLPBRjim5Dph54GsMkK21LoWiDh2YmA6WcZFYhH1L145aZRQtAYBhde4Nwn3Kln9YjjcbO0pyzwRzr5eRwGY7HyPPr9L4rL6z6AYeo4FXz5mTQAlp_f2bP0FX6hoV2WnO1ggzt8qIWu3LmxKxPT2Lmk3nW9uM00RVc4hjMO1EYh9BaZRFHutql4vR2XxkVAXvRrKZCA5kS9s-Jv9PRX_ubDLxNRaCE9P4iR9G8aBINQxYlP6NAdXoStm2tby3-F8En3FYckgo3JNeCaFo1YAOlMivwnAOZ0SL0XqUmYWzju9B51m7Ez07ImA1khB0CC94tgIe_Wg1i4ein6qaVstH4G73evu1A_ZIfn43vv30Jx4J1FbM1t9OmZrv83w0ff0IhnYF0DQwP0waZe9zK9xSVizfamoF7AnxhRyB3G6m6AYkRwwpkeeZWHL1bfwKNLteZfme5D6ymIwEOphrHTf0OeOYVOKlSaP-z2TqEex8UaWNXSHqLrRyeVUNDnhvAILITKxmoDK4H4nR_IpvMYTIDtCnWvC9fZKRxHrLGCjCdoxordUaSBaHfS_Sss2k5zxjqE3cNjEIQzkFvd0v17yU0UQlQlAzmxJRNbkIll1Jv-5naWu7FRlnbCtHySfB5YUv4fgDhtmORCHieIimYOBssPXqw4XE36K8EzhE1L52gtxiqqfv4SAld1hwI9e6uE6LZXNoTdwBCUjDFSL7tJOCSnuZxiRbBD52FNZQj4pmikNQU1e2rAlgfguNevS9N_ca-aQMfFL4LoWbKV7HV4dqGu4oFcYr2GxX4zomCMn9-xy5xbS1UjQatHAFdv7_pZcYDgLo1dP1MdS8xVGso-xCK41PSPgrFsuziDHEqAKRLTb-qBWVrtqrNvp_hlqQ62sDuaNwrtxt5Y7qiQi78gCR46Qyh7qgjYBkXpG9M-y2lfF3g_plk_m7E2kmnkdNuL13aHjroJkRA7YHclrBMXN2YLhll-Vn9YTVwoD5Th-gYXoAi3pDnh_5MJVmZolMU8F]--></g></svg>